<svg width="400" height="100" viewBox="0 0 400 100" fill="none" xmlns="http://www.w3.org/2000/svg">
<g clip-path="url(#clip0_8662_51564)">
<path fill-rule="evenodd" clip-rule="evenodd" d="M84.0535 19.9425C80.0185 19.9425 77.2689 17.9641 77.2689 15.089V3.86328H81.0643V15.0653C81.0643 16.7682 82.4998 17.6874 84.2036 17.6874C85.9373 17.6874 87.3121 16.7682 87.3121 15.0653V3.86328H90.8391V15.089C90.8391 17.9641 88.0885 19.9425 84.0535 19.9425Z" fill="#808285"/>
<path fill-rule="evenodd" clip-rule="evenodd" d="M97.5671 8.45246C96.9357 8.45246 96.4453 8.54295 96.0946 8.6684V13.5229C96.2818 13.5774 96.7486 13.6134 97.1928 13.6134C99.4838 13.6134 100.607 12.6602 100.607 11.0067C100.607 9.28023 99.7409 8.45246 97.5671 8.45246ZM100.7 19.6905L96.1409 14.0802H96.0946V19.6905H93.1722V7.84167C94.1769 7.44578 95.7203 7.14038 97.5671 7.14038C101.565 7.14038 103.505 8.57894 103.505 10.8987C103.505 12.7681 101.752 14.0453 99.2031 14.1707V14.2067L103.997 19.6905H100.7Z" fill="#808285"/>
<path fill-rule="evenodd" clip-rule="evenodd" d="M108.903 13.7748L107.991 13.7933V18.2345C108.505 18.3969 109.066 18.4679 109.861 18.4679C111.779 18.4679 113.134 17.8746 113.134 16.2746C113.134 14.5666 111.941 13.7214 108.903 13.7748ZM109.768 8.43498C109.066 8.43498 108.528 8.50696 107.991 8.65092V12.6602L108.903 12.6777C111.755 12.7322 112.714 11.9764 112.714 10.4843C112.714 9.11776 111.708 8.43498 109.768 8.43498ZM109.955 19.8705C107.921 19.8705 106.284 19.6185 105.186 19.1692V7.84167C106.168 7.4283 107.827 7.14038 109.768 7.14038C113.648 7.14038 115.566 8.50696 115.566 10.3414C115.566 12.0309 113.929 12.9121 112.574 13.1455V13.1815C114.046 13.4334 116.104 14.5121 116.104 16.3106C116.104 18.7743 113.625 19.8705 109.955 19.8705Z" fill="#808285"/>
<path fill-rule="evenodd" clip-rule="evenodd" d="M123.278 10.8257C122.928 9.90952 122.857 9.33368 122.857 9.33368H122.81C122.81 9.33368 122.74 9.90952 122.366 10.8257L120.637 15.1774H124.938L123.278 10.8257ZM126.597 19.6905L125.359 16.508H120.169L118.883 19.6905H116.218L121.549 7.32031H124.354L129.661 19.6905H126.597Z" fill="#808285"/>
<path fill-rule="evenodd" clip-rule="evenodd" d="M139.921 19.6905L133.819 11.7069C133.281 11.0067 132.883 10.3229 132.883 10.3229H132.837C132.837 10.3229 132.931 11.0242 132.931 11.7614V19.6905H130.429V7.32031H133.234L138.986 14.836C139.523 15.5373 139.851 16.0946 139.851 16.0946H139.897C139.897 16.0946 139.827 15.5013 139.827 14.7815V7.32031H142.305V19.6905H139.921Z" fill="#808285"/>
<path fill-rule="evenodd" clip-rule="evenodd" d="M82.948 28.1037C82.1408 28.1037 81.5125 28.2179 81.0642 28.3793V34.5901C81.3038 34.659 81.9012 34.7043 82.4699 34.7043C85.3984 34.7043 86.8339 33.4857 86.8339 31.3695C86.8339 29.1618 85.7275 28.1037 82.948 28.1037ZM86.9532 42.4801L81.1239 35.3027H81.0642V42.4801H77.3285V27.3212C78.6138 26.8153 80.5871 26.4246 82.948 26.4246C88.0596 26.4246 90.5398 28.2641 90.5398 31.2318C90.5398 33.6235 88.2982 35.2575 85.0406 35.4179V35.4641L91.1681 42.4801H86.9532Z" fill="#808285"/>
<path fill-rule="evenodd" clip-rule="evenodd" d="M92.2345 42.472V30.1008H100.066V31.6289H95.2031V35.3687H99.5281V36.8792H95.2031V40.943H100.066V42.472H92.2345Z" fill="#808285"/>
<path fill-rule="evenodd" clip-rule="evenodd" d="M106.072 31.4127C105.441 31.4127 104.974 31.4672 104.553 31.5926V40.8893C104.904 40.9798 105.488 41.0692 106.119 41.0692C108.878 41.0692 109.954 39.5227 109.954 36.1602C109.954 32.9417 108.761 31.4127 106.072 31.4127ZM106.167 42.6518C104.179 42.6518 102.589 42.3813 101.607 41.9494V30.6219C102.659 30.2086 104.155 29.9207 106.002 29.9207C110.865 29.9207 112.969 32.4924 112.969 36.1962C112.969 39.8826 111.029 42.6518 106.167 42.6518Z" fill="#808285"/>
<path fill-rule="evenodd" clip-rule="evenodd" d="M114.603 42.472V30.1008H122.434V31.6289H117.571V35.3687H121.896V36.8792H117.571V40.943H122.434V42.472H114.603Z" fill="#808285"/>
<path fill-rule="evenodd" clip-rule="evenodd" d="M130.077 42.472H127.505L122.665 30.1008H125.822L128.44 38.0484C128.675 38.7682 128.861 39.6124 128.861 39.6124H128.908C128.908 39.6124 129.095 38.7682 129.329 38.0484L131.994 30.1008H134.823L130.077 42.472Z" fill="#808285"/>
<path fill-rule="evenodd" clip-rule="evenodd" d="M135.639 42.472V30.1008H143.47V31.6289H138.608V35.3687H142.933V36.8792H138.608V40.943H143.47V42.472H135.639Z" fill="#808285"/>
<path fill-rule="evenodd" clip-rule="evenodd" d="M145.058 42.472V30.1008H148.05V40.943H152.493V42.472H145.058Z" fill="#808285"/>
<path fill-rule="evenodd" clip-rule="evenodd" d="M159.246 31.4312C156.768 31.4312 156.208 33.8939 156.208 36.2137C156.208 38.516 156.698 40.9613 159.246 40.9613C161.795 40.9613 162.262 38.516 162.262 36.2137C162.262 33.8939 161.724 31.4312 159.246 31.4312ZM159.246 42.6518C154.921 42.6518 153.192 39.8106 153.192 36.2857C153.192 32.7793 154.921 29.9207 159.246 29.9207C163.571 29.9207 165.278 32.7793 165.278 36.2857C165.278 39.8106 163.571 42.6518 159.246 42.6518Z" fill="#808285"/>
<path fill-rule="evenodd" clip-rule="evenodd" d="M171.307 31.2338C170.606 31.2338 170.092 31.3407 169.811 31.4312V36.2322L170.419 36.2682C173.318 36.4482 174.369 35.459 174.369 33.751C174.369 32.078 173.504 31.2338 171.307 31.2338ZM170.442 37.6173L169.811 37.5803V42.4718H166.912V30.6219C167.94 30.2086 169.507 29.9207 171.354 29.9207C175.492 29.9207 177.223 31.5752 177.223 33.7685C177.223 36.0163 175.235 37.8867 170.442 37.6173Z" fill="#808285"/>
<path fill-rule="evenodd" clip-rule="evenodd" d="M191.503 42.472C191.481 42.1656 190.475 34.29 190.475 34.29C190.382 33.5168 190.405 32.798 190.405 32.798H190.359C190.359 32.798 190.195 33.4993 189.891 34.29C189.891 34.29 187.015 42.0576 186.828 42.472H185.146C184.982 42.1121 182.106 34.2726 182.106 34.2726C181.825 33.4993 181.639 32.798 181.639 32.798H181.592C181.592 32.798 181.615 33.4993 181.521 34.2726C181.521 34.2726 180.516 42.1121 180.493 42.472H177.992L179.792 30.1008H182.785L185.66 38.0299C185.94 38.8217 186.08 39.415 186.08 39.415H186.128C186.128 39.415 186.244 38.8217 186.548 38.0299L189.518 30.1008H192.51L194.31 42.472H191.503Z" fill="#808285"/>
<path fill-rule="evenodd" clip-rule="evenodd" d="M195.871 42.472V30.1008H203.704V31.6289H198.841V35.3687H203.166V36.8792H198.841V40.943H203.704V42.472H195.871Z" fill="#808285"/>
<path fill-rule="evenodd" clip-rule="evenodd" d="M214.735 42.472L208.633 34.4885C208.096 33.7872 207.699 33.1034 207.699 33.1034H207.651C207.651 33.1034 207.745 33.8047 207.745 34.542V42.472H205.244V30.1008H208.049L213.801 37.6175C214.337 38.3178 214.665 38.8762 214.665 38.8762H214.713C214.713 38.8762 214.642 38.2818 214.642 37.563V30.1008H217.12V42.472H214.735Z" fill="#808285"/>
<path fill-rule="evenodd" clip-rule="evenodd" d="M224.293 31.6289V42.472H221.324V31.6289H218.332V30.1008H227.31V31.6289H224.293Z" fill="#808285"/>
<path fill-rule="evenodd" clip-rule="evenodd" d="M84.5316 53.9228C84.0833 52.7506 83.9938 52.0143 83.9938 52.0143H83.9342C83.9342 52.0143 83.8447 52.7506 83.3665 53.9228L81.1547 59.4899H86.654L84.5316 53.9228ZM88.7763 65.2637L87.1917 61.1927H80.5563L78.9131 65.2637H75.5054L82.3208 49.4385H85.9064L92.692 65.2637H88.7763Z" fill="#808285"/>
<path fill-rule="evenodd" clip-rule="evenodd" d="M98.5254 65.4632C95.3697 65.4632 93.2185 63.9166 93.2185 61.6699V52.8945H96.1871V61.6513C96.1871 62.9819 97.31 63.7007 98.6427 63.7007C99.9979 63.7007 101.074 62.9819 101.074 61.6513V52.8945H103.832V61.6699C103.832 63.9166 101.682 65.4632 98.5254 65.4632Z" fill="#808285"/>
<path fill-rule="evenodd" clip-rule="evenodd" d="M111.007 54.4226V65.2657H108.037V54.4226H105.045V52.8945H114.023V54.4226H111.007Z" fill="#808285"/>
<path fill-rule="evenodd" clip-rule="evenodd" d="M123.255 65.2657V59.6729H118.182V65.2657H115.212V52.8945H118.182V58.1624H123.255V52.8945H126.224V65.2657H123.255Z" fill="#808285"/>
<path fill-rule="evenodd" clip-rule="evenodd" d="M133.912 54.2251C131.434 54.2251 130.873 56.6879 130.873 59.0077C130.873 61.3089 131.363 63.7552 133.912 63.7552C136.461 63.7552 136.929 61.3089 136.929 59.0077C136.929 56.6879 136.391 54.2251 133.912 54.2251ZM133.912 65.4457C129.587 65.4457 127.857 62.6046 127.857 59.0796C127.857 55.5732 129.587 52.7146 133.912 52.7146C138.238 52.7146 139.943 55.5732 139.943 59.0796C139.943 62.6046 138.238 65.4457 133.912 65.4457Z" fill="#808285"/>
<path fill-rule="evenodd" clip-rule="evenodd" d="M146.02 54.0267C145.388 54.0267 144.898 54.1172 144.546 54.2436V59.0981C144.733 59.1516 145.201 59.1886 145.645 59.1886C147.936 59.1886 149.058 58.2344 149.058 56.5809C149.058 54.8544 148.193 54.0267 146.02 54.0267ZM149.152 65.2658L144.593 59.6555H144.546V65.2658H141.624V53.4159C142.629 53.02 144.172 52.7146 146.02 52.7146C150.017 52.7146 151.958 54.1532 151.958 56.473C151.958 58.3424 150.204 59.6195 147.656 59.746V59.7809L152.448 65.2658H149.152Z" fill="#808285"/>
<path fill-rule="evenodd" clip-rule="evenodd" d="M153.684 65.2657H156.677V52.8945H153.684V65.2657Z" fill="#808285"/>
<path fill-rule="evenodd" clip-rule="evenodd" d="M163.899 54.4226V65.2657H160.93V54.4226H157.937V52.8945H166.915V54.4226H163.899Z" fill="#808285"/>
<path fill-rule="evenodd" clip-rule="evenodd" d="M175.469 59.9249V65.2657H172.501V59.9249L168.176 52.8945H171.332L174.09 58.0195H174.137L177.013 52.8945H179.841L175.469 59.9249Z" fill="#808285"/>
<path fill-rule="evenodd" clip-rule="evenodd" d="M61.6267 64.9778H68.4576V3.65137H61.6267V64.9778Z" fill="#ED1B2D"/>
<path fill-rule="evenodd" clip-rule="evenodd" d="M0 34.5552C0 15.4858 15.2884 0.0349121 34.1553 0.0349121C53.0201 0.0349121 68.3095 15.4858 68.3095 34.5552C68.3095 53.6298 53.0201 69.0838 34.1553 69.0838C15.2884 69.0838 0 53.6298 0 34.5552ZM6.2036 34.4884C6.2036 49.9074 18.5501 62.4113 33.7769 62.4113C49.0026 62.4113 61.3501 49.9074 61.3501 34.4884C61.3501 19.0652 49.0026 6.56242 33.7769 6.56242C18.5501 6.56242 6.2036 19.0652 6.2036 34.4884Z" fill="#ED1B2D"/>
<path fill-rule="evenodd" clip-rule="evenodd" d="M46.6921 23.5145V35.1371C46.6921 36.8574 45.6134 38.1037 43.8838 38.1037H39.0067V20.6775L43.6741 20.6652C45.4036 20.6652 46.6921 21.7993 46.6921 23.5145ZM29.5805 16.5706H50.2766C53.7389 16.5706 56.1337 19.3778 56.1337 22.8359L56.1481 32.1202C56.1481 35.5834 53.452 38.6415 49.9939 38.6415C53.4396 38.6415 56.1337 41.1073 56.1337 44.5706V50.8307H46.4494L46.4638 46.3341C46.5779 44.6384 45.1445 43.0076 43.4283 43.0076L38.9399 42.9387V50.8708H29.4396V43.2204C29.4396 47.823 25.7676 50.8564 21.161 50.8564C16.5687 50.8564 12.6571 47.0775 12.6571 42.478V16.5706H21.6833V35.3469C21.6833 37.061 23.1311 38.2816 24.8453 38.2816L29.5116 38.295L29.5805 16.5706Z" fill="#ED1B2D"/>
<path fill-rule="evenodd" clip-rule="evenodd" d="M46.6921 23.5145V35.1371C46.6921 36.8574 45.6134 38.1037 43.8838 38.1037H39.0067V20.6775L43.6741 20.6652C45.4036 20.6652 46.6921 21.7993 46.6921 23.5145ZM29.5805 16.5706H50.2766C53.7389 16.5706 56.1337 19.3778 56.1337 22.8359L56.1481 32.1202C56.1481 35.5834 53.452 38.6415 49.9939 38.6415C53.4396 38.6415 56.1337 41.1073 56.1337 44.5706V50.8307H46.4494L46.4638 46.3341C46.5779 44.6384 45.1445 43.0076 43.4283 43.0076L38.9399 42.9387V50.8708H29.4396V43.2204C29.4396 47.823 25.7676 50.8564 21.161 50.8564C16.5687 50.8564 12.6571 47.0775 12.6571 42.478V16.5706H21.6833V35.3469C21.6833 37.061 23.1311 38.2816 24.8453 38.2816L29.5116 38.295L29.5805 16.5706Z" stroke="#ED1B2D" stroke-width="0.25"/>
<path fill-rule="evenodd" clip-rule="evenodd" d="M5.35532 83.5619V95.5774H4.30031V83.5619H1.61548V82.8401H8.04016V83.5619H5.35532Z" fill="#231F20"/>
<path fill-rule="evenodd" clip-rule="evenodd" d="M13.2781 86.0607C11.0375 86.0607 10.6118 88.5049 10.6118 90.6159C10.6118 92.7445 11.093 95.0406 13.2781 95.0406C15.4992 95.0406 15.9074 92.727 15.9074 90.6159C15.9074 88.5049 15.4992 86.0607 13.2781 86.0607ZM13.2781 95.7624C10.6488 95.7624 9.6123 93.5044 9.6123 90.5964C9.6123 87.6349 10.6488 85.4128 13.2411 85.4128C15.8889 85.4128 16.9069 87.6349 16.9069 90.5964C16.9069 93.5044 15.8704 95.7624 13.2781 95.7624Z" fill="#231F20"/>
<path fill-rule="evenodd" clip-rule="evenodd" d="M35.7686 95.5774V88.3013C35.7686 87.1907 35.2504 86.1162 33.5835 86.1162C32.6025 86.1162 31.8252 86.4689 31.1588 87.2092V95.5774H30.1583V88.2087C30.1583 86.9501 29.3069 86.0977 27.6216 86.0977C26.6776 86.0977 26.1594 86.2098 25.5301 86.5059V95.5774H24.5295V86.1162C25.345 85.672 26.1779 85.4128 27.6956 85.4128C29.1959 85.4128 30.0843 85.8941 30.6951 86.7085C31.4365 85.9136 32.436 85.4128 33.6946 85.4128C36.0833 85.4128 36.7681 87.0612 36.7681 88.2643V95.5774H35.7686Z" fill="#231F20"/>
<path fill-rule="evenodd" clip-rule="evenodd" d="M44.6684 89.708C41.744 90.0966 40.0772 90.6715 40.0772 92.911C40.0772 94.5038 41.0767 95.1517 42.725 95.1517C43.4468 95.1517 44.1882 95.0036 44.6684 94.7445V89.708ZM42.5954 95.7624C40.1512 95.7624 39.0962 94.5964 39.0962 92.911C39.0962 90.2457 41.5394 89.4313 44.6684 89.1157V88.4308C44.6684 86.6355 43.6134 86.1357 42.2438 86.1357C41.2803 86.1357 40.4473 86.4864 39.9291 86.7825L39.6515 86.1357C40.1697 85.8396 41.2072 85.4128 42.3548 85.4128C44.0216 85.4128 45.6134 86.1357 45.6134 88.4504V95.0591C44.8916 95.4848 43.8355 95.7624 42.5954 95.7624Z" fill="#231F20"/>
<path fill-rule="evenodd" clip-rule="evenodd" d="M53.8303 95.5774L49.5722 90.3753H49.5352V95.5774H48.5728V81.0437H49.5352V90.3383H49.5722L53.4972 85.5979H54.6087L50.4987 90.3568L54.9974 95.5774H53.8303Z" fill="#231F20"/>
<path fill-rule="evenodd" clip-rule="evenodd" d="M59.9568 86.1532C58.3651 86.1532 57.1239 87.3758 57.1239 90.4123L62.5676 89.5784C62.5676 87.0797 61.5671 86.1532 59.9568 86.1532ZM57.1424 91.0231C57.2905 93.6709 58.5121 94.9851 60.4936 94.9851C61.6052 94.9851 62.3825 94.6889 62.8823 94.3928L63.1969 95.1146C62.6602 95.4478 61.6597 95.7624 60.4751 95.7624C58.0689 95.7624 56.1985 94.3002 56.1985 90.5594C56.1985 87.0416 57.8838 85.4128 59.9754 85.4128C62.1224 85.4128 63.5486 86.765 63.5486 90.0792L57.1424 91.0231Z" fill="#231F20"/>
<path fill-rule="evenodd" clip-rule="evenodd" d="M73.4313 95.7625C72.0606 95.7625 71.2832 95.4848 70.6539 95.0776L70.9871 94.3373C71.5053 94.6704 72.1902 94.9481 73.2822 94.9481C74.949 94.9481 76.0236 93.8375 76.0236 92.1347C76.0236 90.8381 75.3192 90.0792 73.5609 89.4118C71.3758 88.5974 70.7835 87.2833 70.7835 86.0432C70.7835 84.2283 72.0791 82.655 74.1532 82.655C75.2082 82.655 76.0596 82.9512 76.5789 83.3203L76.2827 84.0062C75.8375 83.71 75.0971 83.3954 74.2087 83.3954C72.6714 83.3954 71.82 84.4504 71.82 86.0237C71.82 87.5239 72.949 88.1532 74.1347 88.5974C76.6889 89.5239 77.0786 91.0602 77.0786 92.0967C77.0786 94.2807 75.5228 95.7625 73.4313 95.7625Z" fill="#231F20"/>
<path fill-rule="evenodd" clip-rule="evenodd" d="M79.7419 95.5774H80.7414V85.598H79.7419V95.5774ZM80.2416 83.4694C79.8715 83.4694 79.5753 83.1733 79.5753 82.8021C79.5753 82.4319 79.8715 82.1357 80.2416 82.1357C80.6118 82.1357 80.908 82.4319 80.908 82.8021C80.908 83.1733 80.6118 83.4694 80.2416 83.4694Z" fill="#231F20"/>
<mask id="mask0_8662_51564" style="mask-type:alpha" maskUnits="userSpaceOnUse" x="83" y="85" width="17" height="15">
<path d="M83.7203 85.4128H99.6782V99.6812H83.7203V85.4128Z" fill="#231F20"/>
</mask>
<g mask="url(#mask0_8662_51564)">
<path fill-rule="evenodd" clip-rule="evenodd" d="M89.3306 95.5774V88.3198C89.3306 87.2833 88.9234 86.0977 86.943 86.0977C85.8314 86.0977 85.3316 86.2468 84.7209 86.5059V95.5774H83.7203V86.1162C84.5543 85.672 85.5908 85.4128 87.091 85.4128C89.6638 85.4128 90.3311 87.0416 90.3311 88.2643V95.5774H89.3306Z" fill="#231F20"/>
<path fill-rule="evenodd" clip-rule="evenodd" d="M98.7147 86.3763C98.289 86.1357 97.6967 86.0432 97.0293 86.0432C94.7527 86.0432 93.7707 87.9681 93.7707 90.7455C93.7707 93.4488 94.7157 95.0776 96.8628 95.0776C97.6041 95.0776 98.2705 94.874 98.7147 94.5964V86.3763ZM96.1224 99.7429C94.9008 99.7429 93.9558 99.4838 93.345 99.0951L93.7347 98.3918C94.2345 98.6889 95.0859 98.984 95.9743 98.984C97.9373 98.984 98.7147 97.6884 98.7147 96.0031V95.2257C98.252 95.5229 97.4931 95.7265 96.6036 95.7265C94.2149 95.7265 92.7712 93.8005 92.7712 90.7455C92.7712 87.6349 94.2149 85.4128 97.0119 85.4128C98.3075 85.4128 99.1774 85.747 99.6782 86.0802V95.856C99.6782 98.2067 98.4185 99.7429 96.1224 99.7429Z" fill="#231F20"/>
</g>
<path fill-rule="evenodd" clip-rule="evenodd" d="M107.579 89.708C104.654 90.0966 102.988 90.6715 102.988 92.911C102.988 94.5038 103.988 95.1517 105.635 95.1517C106.358 95.1517 107.098 95.0036 107.579 94.7445V89.708ZM105.505 95.7624C103.062 95.7624 102.007 94.5964 102.007 92.911C102.007 90.2457 104.45 89.4313 107.579 89.1157V88.4308C107.579 86.6355 106.524 86.1357 105.155 86.1357C104.191 86.1357 103.358 86.4864 102.84 86.7825L102.562 86.1357C103.081 85.8396 104.117 85.4128 105.266 85.4128C106.932 85.4128 108.524 86.1357 108.524 88.4504V95.0591C107.802 95.4848 106.747 95.7624 105.505 95.7624Z" fill="#231F20"/>
<path fill-rule="evenodd" clip-rule="evenodd" d="M114.057 86.0432C113.316 86.0432 112.798 86.1532 112.354 86.3948V94.837C112.705 94.9666 113.205 95.0776 113.779 95.0776C116.075 95.0776 117.279 93.3378 117.279 90.4864C117.279 87.8015 116.427 86.0432 114.057 86.0432ZM113.946 95.7265C113.39 95.7265 112.761 95.6144 112.354 95.4663V99.5578H111.373V86.0977C111.947 85.7275 112.891 85.4128 114.132 85.4128C116.852 85.4128 118.279 87.4869 118.279 90.3753C118.279 93.7635 116.593 95.7265 113.946 95.7265Z" fill="#231F20"/>
<path fill-rule="evenodd" clip-rule="evenodd" d="M123.977 86.0607C121.738 86.0607 121.312 88.5049 121.312 90.6159C121.312 92.7445 121.793 95.0406 123.977 95.0406C126.199 95.0406 126.607 92.727 126.607 90.6159C126.607 88.5049 126.199 86.0607 123.977 86.0607ZM123.977 95.7624C121.349 95.7624 120.312 93.5044 120.312 90.5964C120.312 87.6349 121.349 85.4128 123.941 85.4128C126.588 85.4128 127.607 87.6349 127.607 90.5964C127.607 93.5044 126.57 95.7624 123.977 95.7624Z" fill="#231F20"/>
<path fill-rule="evenodd" clip-rule="evenodd" d="M133.511 86.2828C132.641 86.0432 131.603 86.1532 131.048 86.5614V95.5774H130.048V86.1162C130.955 85.6545 131.622 85.4128 133.807 85.4128L133.511 86.2828Z" fill="#231F20"/>
<path fill-rule="evenodd" clip-rule="evenodd" d="M139.008 86.1532C137.415 86.1532 136.175 87.3758 136.175 90.4123L141.617 89.5784C141.617 87.0797 140.618 86.1532 139.008 86.1532ZM136.193 91.0231C136.341 93.6709 137.563 94.9851 139.544 94.9851C140.655 94.9851 141.432 94.6889 141.932 94.3928L142.247 95.1146C141.71 95.4478 140.71 95.7624 139.525 95.7624C137.119 95.7624 135.248 94.3002 135.248 90.5594C135.248 87.0416 136.934 85.4128 139.026 85.4128C141.173 85.4128 142.599 86.765 142.599 90.0792L136.193 91.0231Z" fill="#231F20"/>
<mask id="mask1_8662_51564" style="mask-type:alpha" maskUnits="userSpaceOnUse" x="149" y="85" width="22" height="15">
<path d="M149.704 85.4128H170.751V99.6812H149.704V85.4128Z" fill="#231F20"/>
</mask>
<g mask="url(#mask1_8662_51564)">
<path fill-rule="evenodd" clip-rule="evenodd" d="M155.277 89.708C152.352 90.0966 150.685 90.6715 150.685 92.911C150.685 94.5038 151.685 95.1517 153.333 95.1517C154.055 95.1517 154.796 95.0036 155.277 94.7445V89.708ZM153.203 95.7625C150.76 95.7625 149.704 94.5964 149.704 92.911C149.704 90.2457 152.148 89.4314 155.277 89.1157V88.4308C155.277 86.6355 154.221 86.1357 152.851 86.1357C151.889 86.1357 151.056 86.4864 150.537 86.7825L150.259 86.1357C150.778 85.8396 151.815 85.4128 152.962 85.4128C154.629 85.4128 156.221 86.1357 156.221 88.4504V95.0591C155.499 95.4848 154.444 95.7625 153.203 95.7625Z" fill="#231F20"/>
<path fill-rule="evenodd" clip-rule="evenodd" d="M169.787 86.3763C169.361 86.1357 168.769 86.0432 168.103 86.0432C165.826 86.0432 164.844 87.9681 164.844 90.7455C164.844 93.4488 165.788 95.0776 167.936 95.0776C168.677 95.0776 169.343 94.874 169.787 94.5964V86.3763ZM167.196 99.7429C165.974 99.7429 165.029 99.4838 164.419 99.0951L164.807 98.3918C165.307 98.6889 166.159 98.984 167.048 98.984C169.01 98.984 169.787 97.6884 169.787 96.0031V95.2257C169.325 95.5229 168.567 95.7265 167.677 95.7265C165.288 95.7265 163.845 93.8005 163.845 90.7455C163.845 87.6349 165.288 85.4128 168.084 85.4128C169.381 85.4128 170.25 85.747 170.751 86.0802V95.856C170.751 98.2067 169.492 99.7429 167.196 99.7429Z" fill="#231F20"/>
</g>
<path fill-rule="evenodd" clip-rule="evenodd" d="M177.061 86.2828C176.191 86.0432 175.154 86.1532 174.598 86.5614V95.5774H173.599V86.1162C174.506 85.6545 175.172 85.4128 177.356 85.4128L177.061 86.2828Z" fill="#231F20"/>
<path fill-rule="evenodd" clip-rule="evenodd" d="M182.558 86.1532C180.966 86.1532 179.726 87.3758 179.726 90.4123L185.169 89.5784C185.169 87.0797 184.169 86.1532 182.558 86.1532ZM179.744 91.0231C179.892 93.6709 181.115 94.9851 183.096 94.9851C184.207 94.9851 184.983 94.6889 185.484 94.3928L185.797 95.1146C185.262 95.4478 184.261 95.7624 183.077 95.7624C180.669 95.7624 178.8 94.3002 178.8 90.5594C178.8 87.0416 180.484 85.4128 182.577 85.4128C184.725 85.4128 186.15 86.765 186.15 90.0792L179.744 91.0231Z" fill="#231F20"/>
<path fill-rule="evenodd" clip-rule="evenodd" d="M193.645 89.708C190.721 90.0966 189.054 90.6715 189.054 92.911C189.054 94.5038 190.054 95.1517 191.702 95.1517C192.424 95.1517 193.165 95.0036 193.645 94.7445V89.708ZM191.572 95.7624C189.128 95.7624 188.072 94.5964 188.072 92.911C188.072 90.2457 190.516 89.4313 193.645 89.1157V88.4308C193.645 86.6355 192.59 86.1357 191.221 86.1357C190.257 86.1357 189.424 86.4864 188.906 86.7825L188.628 86.1357C189.147 85.8396 190.183 85.4128 191.331 85.4128C192.997 85.4128 194.589 86.1357 194.589 88.4504V95.0591C193.867 95.4848 192.812 95.7624 191.572 95.7624Z" fill="#231F20"/>
<path fill-rule="evenodd" clip-rule="evenodd" d="M200.196 95.6329C198.512 95.6329 197.974 94.3743 197.974 93.2997V86.1902H196.808V85.5979H197.974V83.2103L198.975 82.8401V85.5979H200.827V86.1727H198.975V93.3563C198.975 94.1707 199.363 94.9296 200.419 94.9296C200.531 94.9296 200.697 94.9295 200.827 94.8925V95.5404C200.66 95.5959 200.456 95.6329 200.196 95.6329Z" fill="#231F20"/>
<path fill-rule="evenodd" clip-rule="evenodd" d="M211.376 95.7624C209.283 95.7624 207.747 93.745 207.747 90.5964C207.747 87.3573 209.229 85.4128 211.451 85.4128C212.654 85.4128 213.264 85.8396 213.524 86.0432L213.246 86.6725C212.932 86.4319 212.432 86.1532 211.598 86.1532C209.525 86.1532 208.765 88.0421 208.765 90.5234C208.765 93.1157 209.709 94.9851 211.543 94.9851C212.283 94.9851 212.821 94.7445 213.228 94.4483L213.524 95.1342C213.154 95.4478 212.432 95.7624 211.376 95.7624Z" fill="#231F20"/>
<path fill-rule="evenodd" clip-rule="evenodd" d="M215.818 95.5774H216.816V85.598H215.818V95.5774ZM216.318 83.4694C215.948 83.4694 215.651 83.1733 215.651 82.8021C215.651 82.4319 215.948 82.1357 216.318 82.1357C216.687 82.1357 216.984 82.4319 216.984 82.8021C216.984 83.1733 216.687 83.4694 216.318 83.4694Z" fill="#231F20"/>
<path fill-rule="evenodd" clip-rule="evenodd" d="M222.556 95.6329C220.871 95.6329 220.333 94.3743 220.333 93.2997V86.1902H219.168V85.5979H220.333V83.2103L221.334 82.8401V85.5979H223.186V86.1727H221.334V93.3563C221.334 94.1707 221.722 94.9296 222.777 94.9296C222.889 94.9296 223.056 94.9295 223.186 94.8925V95.5404C223.019 95.5959 222.814 95.6329 222.556 95.6329Z" fill="#231F20"/>
<path fill-rule="evenodd" clip-rule="evenodd" d="M227.386 99.5578H226.276L227.941 95.5773L224.572 85.5979H225.665L228.071 93.4663C228.256 94.0596 228.312 94.5778 228.312 94.5778H228.349C228.349 94.5778 228.441 94.0781 228.627 93.4663L231.108 85.5979H232.015L227.386 99.5578Z" fill="#231F20"/>
<path fill-rule="evenodd" clip-rule="evenodd" d="M241.99 95.6329C240.304 95.6329 239.768 94.3743 239.768 93.2997V86.1902H238.602V85.5979H239.768V83.2103L240.767 82.8401V85.5979H242.619V86.1727H240.767V93.3563C240.767 94.1707 241.156 94.9296 242.212 94.9296C242.323 94.9296 242.489 94.9295 242.619 94.8925V95.5404C242.452 95.5959 242.249 95.6329 241.99 95.6329Z" fill="#231F20"/>
<path fill-rule="evenodd" clip-rule="evenodd" d="M248.024 86.0607C245.783 86.0607 245.357 88.5049 245.357 90.6159C245.357 92.7445 245.839 95.0406 248.024 95.0406C250.245 95.0406 250.653 92.727 250.653 90.6159C250.653 88.5049 250.245 86.0607 248.024 86.0607ZM248.024 95.7624C245.394 95.7624 244.358 93.5044 244.358 90.5964C244.358 87.6349 245.394 85.4128 247.987 85.4128C250.633 85.4128 251.651 87.6349 251.651 90.5964C251.651 93.5044 250.616 95.7624 248.024 95.7624Z" fill="#231F20"/>
<path fill-rule="evenodd" clip-rule="evenodd" d="M259.424 95.5774H260.425V81.0437H259.424V95.5774Z" fill="#231F20"/>
<path fill-rule="evenodd" clip-rule="evenodd" d="M263.553 95.5774H264.551V85.598H263.553V95.5774ZM264.052 83.4694C263.682 83.4694 263.386 83.1733 263.386 82.8021C263.386 82.4319 263.682 82.1357 264.052 82.1357C264.422 82.1357 264.718 82.4319 264.718 82.8021C264.718 83.1733 264.422 83.4694 264.052 83.4694Z" fill="#231F20"/>
<path fill-rule="evenodd" clip-rule="evenodd" d="M270.956 95.5773H270.141L266.772 85.5979H267.864L270.307 93.4663C270.494 94.0596 270.548 94.5223 270.548 94.5223H270.586C270.586 94.5223 270.66 94.0781 270.844 93.4663L273.307 85.5979H274.215L270.956 95.5773Z" fill="#231F20"/>
<path fill-rule="evenodd" clip-rule="evenodd" d="M279.599 86.1532C278.006 86.1532 276.766 87.3758 276.766 90.4123L282.21 89.5784C282.21 87.0797 281.21 86.1532 279.599 86.1532ZM276.785 91.0231C276.933 93.6709 278.155 94.9851 280.137 94.9851C281.247 94.9851 282.025 94.6889 282.524 94.3928L282.839 95.1146C282.302 95.4478 281.302 95.7624 280.117 95.7624C277.71 95.7624 275.841 94.3002 275.841 90.5594C275.841 87.0416 277.526 85.4128 279.617 85.4128C281.766 85.4128 283.191 86.765 283.191 90.0792L276.785 91.0231Z" fill="#231F20"/>
<path fill-rule="evenodd" clip-rule="evenodd" d="M285.132 98.7064H284.54L286.039 94.5223C286.224 94.3557 286.446 94.2437 286.835 94.2437C287.131 94.2437 287.243 94.3927 287.28 94.5223L285.132 98.7064Z" fill="#231F20"/>
<path fill-rule="evenodd" clip-rule="evenodd" d="M304.218 95.5773H303.421L301.126 87.5794C300.959 87.0241 300.921 86.5244 300.921 86.5244H300.884C300.884 86.5244 300.83 87.0046 300.663 87.5794L298.311 95.5773H297.516L294.626 85.5979H295.682L297.701 93.4663C297.867 94.0966 297.904 94.5223 297.904 94.5223H297.941C297.941 94.5223 297.997 94.0966 298.181 93.4663L300.478 85.5979H301.385L303.607 93.4663C303.754 93.9671 303.829 94.5223 303.829 94.5223H303.866C303.866 94.5223 303.959 93.967 304.088 93.4488L306.161 85.5979H307.105L304.218 95.5773Z" fill="#231F20"/>
<path fill-rule="evenodd" clip-rule="evenodd" d="M312.508 86.0607C310.267 86.0607 309.842 88.5049 309.842 90.6159C309.842 92.7445 310.323 95.0406 312.508 95.0406C314.729 95.0406 315.137 92.727 315.137 90.6159C315.137 88.5049 314.729 86.0607 312.508 86.0607ZM312.508 95.7624C309.879 95.7624 308.842 93.5044 308.842 90.5964C308.842 87.6349 309.879 85.4128 312.471 85.4128C315.118 85.4128 316.136 87.6349 316.136 90.5964C316.136 93.5044 315.1 95.7624 312.508 95.7624Z" fill="#231F20"/>
<path fill-rule="evenodd" clip-rule="evenodd" d="M322.041 86.2828C321.17 86.0432 320.133 86.1532 319.577 86.5614V95.5774H318.578V86.1162C319.485 85.6545 320.152 85.4128 322.336 85.4128L322.041 86.2828Z" fill="#231F20"/>
<path fill-rule="evenodd" clip-rule="evenodd" d="M329.556 95.5774L325.298 90.3753H325.26V95.5774H324.297V81.0437H325.26V90.3383H325.298L329.223 85.5979H330.333L326.223 90.3568L330.722 95.5774H329.556Z" fill="#231F20"/>
<path fill-rule="evenodd" clip-rule="evenodd" d="M342.567 89.708C339.642 90.0966 337.976 90.6715 337.976 92.911C337.976 94.5038 338.975 95.1517 340.623 95.1517C341.345 95.1517 342.086 95.0036 342.567 94.7445V89.708ZM340.494 95.7624C338.049 95.7624 336.994 94.5964 336.994 92.911C336.994 90.2457 339.438 89.4313 342.567 89.1157V88.4308C342.567 86.6355 341.512 86.1357 340.142 86.1357C339.179 86.1357 338.345 86.4864 337.827 86.7825L337.551 86.1357C338.068 85.8396 339.104 85.4128 340.252 85.4128C341.92 85.4128 343.511 86.1357 343.511 88.4504V95.0591C342.789 95.4848 341.734 95.7624 340.494 95.7624Z" fill="#231F20"/>
<path fill-rule="evenodd" clip-rule="evenodd" d="M351.969 95.5774V88.3198C351.969 87.2833 351.563 86.0977 349.581 86.0977C348.471 86.0977 347.97 86.2468 347.359 86.5059V95.5774H346.36V86.1162C347.193 85.672 348.229 85.4128 349.729 85.4128C352.302 85.4128 352.97 87.0416 352.97 88.2643V95.5774H351.969Z" fill="#231F20"/>
<path fill-rule="evenodd" clip-rule="evenodd" d="M361.334 86.3393C360.871 86.2098 360.371 86.1357 359.873 86.1357C357.205 86.1357 356.409 88.4308 356.409 90.6715C356.409 93.1157 357.299 95.0591 359.631 95.0591C360.428 95.0591 360.964 94.9851 361.334 94.726V86.3393ZM359.538 95.7625C356.761 95.7625 355.41 93.6339 355.41 90.801C355.41 87.4314 357.132 85.5239 359.723 85.5239C360.242 85.5239 360.741 85.5979 361.334 85.7645V81.0437H362.316V95.0776C361.779 95.4478 360.76 95.7625 359.538 95.7625Z" fill="#231F20"/>
<path fill-rule="evenodd" clip-rule="evenodd" d="M373.03 86.0432C372.291 86.0432 371.772 86.1532 371.328 86.3948V94.837C371.679 94.9666 372.179 95.0776 372.754 95.0776C375.049 95.0776 376.252 93.3378 376.252 90.4864C376.252 87.8015 375.401 86.0432 373.03 86.0432ZM372.92 95.7265C372.364 95.7265 371.736 95.6144 371.328 95.4663V99.5578H370.347V86.0977C370.92 85.7275 371.865 85.4128 373.105 85.4128C375.826 85.4128 377.252 87.4869 377.252 90.3753C377.252 93.7635 375.567 95.7265 372.92 95.7265Z" fill="#231F20"/>
<path fill-rule="evenodd" clip-rule="evenodd" d="M379.841 95.5774H380.841V81.0437H379.841V95.5774Z" fill="#231F20"/>
<path fill-rule="evenodd" clip-rule="evenodd" d="M388.894 89.708C385.968 90.0966 384.302 90.6715 384.302 92.911C384.302 94.5038 385.302 95.1517 386.95 95.1517C387.672 95.1517 388.412 95.0036 388.894 94.7445V89.708ZM386.821 95.7624C384.376 95.7624 383.32 94.5964 383.32 92.911C383.32 90.2457 385.765 89.4313 388.894 89.1157V88.4308C388.894 86.6355 387.839 86.1357 386.469 86.1357C385.505 86.1357 384.673 86.4864 384.154 86.7825L383.877 86.1357C384.395 85.8396 385.431 85.4128 386.579 85.4128C388.246 85.4128 389.838 86.1357 389.838 88.4504V95.0591C389.116 95.4848 388.061 95.7624 386.821 95.7624Z" fill="#231F20"/>
<path fill-rule="evenodd" clip-rule="evenodd" d="M394.742 99.5578H393.632L395.298 95.5773L391.928 85.5979H393.021L395.427 93.4663C395.612 94.0596 395.668 94.5778 395.668 94.5778H395.705C395.705 94.5778 395.797 94.0781 395.984 93.4663L398.464 85.5979H399.372L394.742 99.5578Z" fill="#231F20"/>
</g>
<defs>
<clipPath id="clip0_8662_51564">
<rect width="400" height="99.7429" fill="white"/>
</clipPath>
</defs>
</svg>
