<svg width="69" height="70" viewBox="0 0 69 70" fill="none" xmlns="http://www.w3.org/2000/svg">
<path fill-rule="evenodd" clip-rule="evenodd" d="M61.6267 65.3779H68.4576V4.05139H61.6267V65.3779Z" fill="#ED1B2D"/>
<path fill-rule="evenodd" clip-rule="evenodd" d="M0 34.9552C0 15.8858 15.2884 0.434937 34.1553 0.434937C53.0201 0.434937 68.3095 15.8858 68.3095 34.9552C68.3095 54.0298 53.0201 69.4838 34.1553 69.4838C15.2884 69.4838 0 54.0298 0 34.9552ZM6.2036 34.8884C6.2036 50.3074 18.5501 62.8113 33.7769 62.8113C49.0026 62.8113 61.3501 50.3074 61.3501 34.8884C61.3501 19.4653 49.0026 6.96244 33.7769 6.96244C18.5501 6.96244 6.2036 19.4653 6.2036 34.8884Z" fill="#ED1B2D"/>
<path fill-rule="evenodd" clip-rule="evenodd" d="M46.6921 23.9147V35.5373C46.6921 37.2576 45.6134 38.5039 43.8838 38.5039H39.0067V21.0776L43.6741 21.0653C45.4036 21.0653 46.6921 22.1995 46.6921 23.9147ZM29.5805 16.9707H50.2766C53.7389 16.9707 56.1337 19.7779 56.1337 23.236L56.1481 32.5203C56.1481 35.9836 53.452 39.0417 49.9939 39.0417C53.4396 39.0417 56.1337 41.5075 56.1337 44.9707V51.2309H46.4494L46.4638 46.7342C46.5779 45.0386 45.1445 43.4077 43.4283 43.4077L38.9399 43.3388V51.271H29.4396V43.6206C29.4396 48.2231 25.7676 51.2566 21.161 51.2566C16.5687 51.2566 12.6571 47.4776 12.6571 42.8782V16.9707H21.6833V35.7471C21.6833 37.4612 23.1311 38.6818 24.8453 38.6818L29.5116 38.6951L29.5805 16.9707Z" fill="#ED1B2D"/>
<path fill-rule="evenodd" clip-rule="evenodd" d="M46.6921 23.9147V35.5373C46.6921 37.2576 45.6134 38.5039 43.8838 38.5039H39.0067V21.0776L43.6741 21.0653C45.4036 21.0653 46.6921 22.1995 46.6921 23.9147ZM29.5805 16.9707H50.2766C53.7389 16.9707 56.1337 19.7779 56.1337 23.236L56.1481 32.5203C56.1481 35.9836 53.452 39.0417 49.9939 39.0417C53.4396 39.0417 56.1337 41.5075 56.1337 44.9707V51.2309H46.4494L46.4638 46.7342C46.5779 45.0386 45.1445 43.4077 43.4283 43.4077L38.9399 43.3388V51.271H29.4396V43.6206C29.4396 48.2231 25.7676 51.2566 21.161 51.2566C16.5687 51.2566 12.6571 47.4776 12.6571 42.8782V16.9707H21.6833V35.7471C21.6833 37.4612 23.1311 38.6818 24.8453 38.6818L29.5116 38.6951L29.5805 16.9707Z" stroke="#ED1B2D" stroke-width="0.25"/>
</svg>
