<svg width="400" height="101" viewBox="0 0 400 101" fill="none" xmlns="http://www.w3.org/2000/svg">
<g clip-path="url(#clip0_8662_51565)">
<mask id="mask0_8662_51565" style="mask-type:alpha" maskUnits="userSpaceOnUse" x="0" y="83" width="7" height="14">
<path d="M0.0620117 83.2971H6.44651V96.0785H0.0620117V83.2971Z" fill="white"/>
</mask>
<g mask="url(#mask0_8662_51565)">
<path fill-rule="evenodd" clip-rule="evenodd" d="M3.75297 84.0217V96.0785H2.69354V84.0217H0V83.2971H6.44651V84.0217H3.75297Z" fill="#231F20"/>
</g>
<path fill-rule="evenodd" clip-rule="evenodd" d="M11.7075 86.5293C9.45839 86.5293 9.03151 88.982 9.03151 91.0998C9.03151 93.2363 9.51524 95.5401 11.7075 95.5401C13.9359 95.5401 14.3452 93.2166 14.3452 91.0998C14.3452 88.982 13.9359 86.5293 11.7075 86.5293ZM11.7075 96.2647C9.06872 96.2647 8.02893 93.998 8.02893 91.0812C8.02893 88.1076 9.06872 85.8792 11.6703 85.8792C14.3266 85.8792 15.3488 88.1076 15.3488 91.0812C15.3488 93.998 14.308 96.2647 11.7075 96.2647Z" fill="#231F20"/>
<path fill-rule="evenodd" clip-rule="evenodd" d="M34.2842 96.0786V88.7784C34.2842 87.6621 33.7643 86.5861 32.092 86.5861C31.108 86.5861 30.3276 86.9376 29.6579 87.6817V96.0786H28.6553V88.6854C28.6553 87.4213 27.8005 86.5665 26.1096 86.5665C25.1628 86.5665 24.6419 86.6781 24.0103 86.9758V96.0786H23.0078V86.5861C23.8243 86.1396 24.6605 85.8792 26.184 85.8792C27.6889 85.8792 28.5809 86.3618 29.1938 87.1794C29.937 86.3804 30.9395 85.8792 32.2036 85.8792C34.6005 85.8792 35.2879 87.5319 35.2879 88.7391V96.0786H34.2842Z" fill="#231F20"/>
<path fill-rule="evenodd" clip-rule="evenodd" d="M43.2248 90.1892C40.2894 90.5799 38.6181 91.1556 38.6181 93.4027C38.6181 95.0016 39.6217 95.6518 41.2744 95.6518C41.9989 95.6518 42.7421 95.5029 43.2248 95.2414V90.1892ZM41.1442 96.2647C38.6915 96.2647 37.6331 95.0947 37.6331 93.4027C37.6331 90.7277 40.0858 89.9102 43.2248 89.5949V88.9076C43.2248 87.105 42.1664 86.6037 40.7917 86.6037C39.8253 86.6037 38.9891 86.9572 38.4692 87.2538L38.1902 86.6037C38.7111 86.3071 39.7509 85.8792 40.9033 85.8792C42.5747 85.8792 44.1726 86.6037 44.1726 88.9252V95.5587C43.448 95.9856 42.3896 96.2647 41.1442 96.2647Z" fill="#231F20"/>
<path fill-rule="evenodd" clip-rule="evenodd" d="M52.4248 96.0786L48.1509 90.8579H48.1147V96.0786H47.1483V81.4946H48.1147V90.8207H48.1509L52.0899 86.0652H53.2041L49.0801 90.8393L53.5948 96.0786H52.4248Z" fill="#231F20"/>
<path fill-rule="evenodd" clip-rule="evenodd" d="M58.5768 86.6223C56.9788 86.6223 55.7333 87.8481 55.7333 90.8952L61.1959 90.06C61.1959 87.5505 60.1923 86.6223 58.5768 86.6223ZM55.7519 91.5081C55.9008 94.1655 57.1277 95.4843 59.1153 95.4843C60.2295 95.4843 61.0098 95.1877 61.5122 94.89L61.8274 95.6146C61.2889 95.9484 60.2853 96.2647 59.0966 96.2647C56.6811 96.2647 54.8052 94.797 54.8052 91.044C54.8052 87.5143 56.4961 85.8792 58.5943 85.8792C60.7504 85.8792 62.1809 87.2352 62.1809 90.5603L55.7519 91.5081Z" fill="#231F20"/>
<path fill-rule="evenodd" clip-rule="evenodd" d="M72.1064 96.2646C70.7318 96.2646 69.9504 95.9855 69.3188 95.5772L69.6537 94.8341C70.1736 95.1679 70.861 95.447 71.9576 95.447C73.6289 95.447 74.707 94.3328 74.707 92.6232C74.707 91.3219 74.001 90.5602 72.2356 89.8925C70.0444 89.0749 69.4491 87.755 69.4491 86.5106C69.4491 84.6904 70.7493 83.1111 72.83 83.1111C73.8894 83.1111 74.7442 83.4077 75.2641 83.7798L74.9674 84.4672C74.5209 84.1695 73.7778 83.8542 72.8868 83.8542C71.3436 83.8542 70.4899 84.9126 70.4899 86.493C70.4899 87.9969 71.6227 88.6284 72.8124 89.0749C75.3757 90.0031 75.7664 91.5452 75.7664 92.585C75.7664 94.7772 74.2057 96.2646 72.1064 96.2646Z" fill="#231F20"/>
<path fill-rule="evenodd" clip-rule="evenodd" d="M78.4444 96.0785H79.448V86.065H78.4444V96.0785ZM78.9457 83.9286C78.5746 83.9286 78.277 83.6309 78.277 83.2588C78.277 82.8867 78.5746 82.5901 78.9457 82.5901C79.3168 82.5901 79.6144 82.8867 79.6144 83.2588C79.6144 83.6309 79.3168 83.9286 78.9457 83.9286Z" fill="#231F20"/>
<mask id="mask1_8662_51565" style="mask-type:alpha" maskUnits="userSpaceOnUse" x="82" y="85" width="17" height="16">
<path d="M82.4393 85.8792H98.4568V100.196H82.4393V85.8792Z" fill="white"/>
</mask>
<g mask="url(#mask1_8662_51565)">
<path fill-rule="evenodd" clip-rule="evenodd" d="M88.0692 96.0786V88.7959C88.0692 87.7551 87.6599 86.5665 85.6723 86.5665C84.5571 86.5665 84.0558 86.7143 83.4419 86.9758V96.0786H82.4393V86.5861C83.2754 86.1396 84.3163 85.8792 85.8201 85.8792C88.4031 85.8792 89.0718 87.5143 89.0718 88.7391V96.0786H88.0692Z" fill="#231F20"/>
<path fill-rule="evenodd" clip-rule="evenodd" d="M97.4904 86.8456C97.0636 86.6037 96.4693 86.5107 95.8005 86.5107C93.5152 86.5107 92.5302 88.4425 92.5302 91.2301C92.5302 93.9422 93.478 95.5773 95.6331 95.5773C96.3762 95.5773 97.045 95.3737 97.4904 95.0947V86.8456ZM94.8899 100.258C93.6641 100.258 92.7163 99.998 92.1034 99.6083L92.493 98.9024C92.9953 99.2001 93.8491 99.4978 94.7411 99.4978C96.7101 99.4978 97.4904 98.1975 97.4904 96.5055V95.7262C97.0264 96.0228 96.2646 96.2275 95.3726 96.2275C92.9767 96.2275 91.5276 94.2957 91.5276 91.2301C91.5276 88.1076 92.9767 85.8792 95.7819 85.8792C97.0822 85.8792 97.9556 86.214 98.4568 86.5469V96.3577C98.4568 98.7164 97.1938 100.258 94.8899 100.258Z" fill="#231F20"/>
</g>
<path fill-rule="evenodd" clip-rule="evenodd" d="M106.393 90.1892C103.457 90.5799 101.786 91.1556 101.786 93.4027C101.786 95.0016 102.789 95.6518 104.442 95.6518C105.167 95.6518 105.91 95.5029 106.393 95.2414V90.1892ZM104.312 96.2647C101.859 96.2647 100.801 95.0947 100.801 93.4027C100.801 90.7277 103.253 89.9102 106.393 89.5949V88.9076C106.393 87.105 105.334 86.6037 103.96 86.6037C102.993 86.6037 102.157 86.9572 101.637 87.2538L101.358 86.6037C101.878 86.3071 102.919 85.8792 104.07 85.8792C105.743 85.8792 107.341 86.6037 107.341 88.9252V95.5587C106.616 95.9856 105.557 96.2647 104.312 96.2647Z" fill="#231F20"/>
<path fill-rule="evenodd" clip-rule="evenodd" d="M112.898 86.5107C112.155 86.5107 111.635 86.6223 111.19 86.8642V95.3355C111.542 95.4657 112.043 95.5773 112.619 95.5773C114.923 95.5773 116.131 93.8306 116.131 90.9706C116.131 88.275 115.276 86.5107 112.898 86.5107ZM112.787 96.2275C112.229 96.2275 111.598 96.1158 111.19 95.967V100.072H110.205V86.5665C110.78 86.1954 111.728 85.8792 112.973 85.8792C115.703 85.8792 117.135 87.9608 117.135 90.858C117.135 94.2574 115.444 96.2275 112.787 96.2275Z" fill="#231F20"/>
<path fill-rule="evenodd" clip-rule="evenodd" d="M122.86 86.5293C120.611 86.5293 120.184 88.982 120.184 91.0998C120.184 93.2363 120.668 95.5401 122.86 95.5401C125.088 95.5401 125.498 93.2166 125.498 91.0998C125.498 88.982 125.088 86.5293 122.86 86.5293ZM122.86 96.2647C120.221 96.2647 119.181 93.998 119.181 91.0812C119.181 88.1076 120.221 85.8792 122.823 85.8792C125.479 85.8792 126.501 88.1076 126.501 91.0812C126.501 93.998 125.46 96.2647 122.86 96.2647Z" fill="#231F20"/>
<path fill-rule="evenodd" clip-rule="evenodd" d="M132.43 86.7525C131.557 86.5107 130.517 86.6223 129.959 87.0306V96.0786H128.956V86.5861C129.866 86.12 130.535 85.8792 132.728 85.8792L132.43 86.7525Z" fill="#231F20"/>
<path fill-rule="evenodd" clip-rule="evenodd" d="M137.949 86.6223C136.351 86.6223 135.107 87.8481 135.107 90.8952L140.568 90.06C140.568 87.5505 139.566 86.6223 137.949 86.6223ZM135.126 91.5081C135.274 94.1655 136.5 95.4843 138.488 95.4843C139.603 95.4843 140.383 95.1877 140.885 94.89L141.201 95.6146C140.662 95.9484 139.659 96.2647 138.469 96.2647C136.055 96.2647 134.178 94.797 134.178 91.044C134.178 87.5143 135.869 85.8792 137.968 85.8792C140.123 85.8792 141.554 87.2352 141.554 90.5603L135.126 91.5081Z" fill="#231F20"/>
<mask id="mask2_8662_51565" style="mask-type:alpha" maskUnits="userSpaceOnUse" x="148" y="85" width="22" height="16">
<path d="M148.693 85.8792H169.821V100.196H148.693V85.8792Z" fill="white"/>
</mask>
<g mask="url(#mask2_8662_51565)">
<path fill-rule="evenodd" clip-rule="evenodd" d="M154.284 90.1892C151.349 90.5799 149.676 91.1556 149.676 93.4027C149.676 95.0016 150.68 95.6518 152.334 95.6518C153.058 95.6518 153.802 95.5029 154.284 95.2414V90.1892ZM152.204 96.2647C149.751 96.2647 148.693 95.0947 148.693 93.4027C148.693 90.7277 151.144 89.9102 154.284 89.5949V88.9076C154.284 87.105 153.226 86.6037 151.85 86.6037C150.885 86.6037 150.049 86.9572 149.528 87.2538L149.25 86.6037C149.77 86.3071 150.81 85.8792 151.962 85.8792C153.634 85.8792 155.232 86.6037 155.232 88.9251V95.5587C154.507 95.9856 153.448 96.2647 152.204 96.2647Z" fill="#231F20"/>
<path fill-rule="evenodd" clip-rule="evenodd" d="M168.855 86.8456C168.427 86.6037 167.833 86.5107 167.164 86.5107C164.879 86.5107 163.895 88.4425 163.895 91.2301C163.895 93.9422 164.841 95.5773 166.996 95.5773C167.74 95.5773 168.409 95.3737 168.855 95.0947V86.8456ZM166.254 100.258C165.027 100.258 164.081 99.998 163.467 99.6083L163.857 98.9024C164.359 99.2001 165.213 99.4978 166.104 99.4978C168.074 99.4978 168.855 98.1975 168.855 96.5055V95.7262C168.391 96.0228 167.629 96.2275 166.736 96.2275C164.34 96.2275 162.891 94.2957 162.891 91.2301C162.891 88.1076 164.34 85.8792 167.145 85.8792C168.447 85.8792 169.319 86.214 169.821 86.5469V96.3577C169.821 98.7164 168.557 100.258 166.254 100.258Z" fill="#231F20"/>
</g>
<path fill-rule="evenodd" clip-rule="evenodd" d="M176.159 86.7525C175.286 86.5107 174.245 86.6223 173.688 87.0306V96.0786H172.684V86.5861C173.595 86.12 174.265 85.8792 176.457 85.8792L176.159 86.7525Z" fill="#231F20"/>
<path fill-rule="evenodd" clip-rule="evenodd" d="M181.679 86.6223C180.081 86.6223 178.836 87.8481 178.836 90.8952L184.299 90.06C184.299 87.5505 183.295 86.6223 181.679 86.6223ZM178.855 91.5081C179.004 94.1655 180.229 95.4843 182.218 95.4843C183.332 95.4843 184.113 95.1877 184.614 94.89L184.93 95.6146C184.391 95.9484 183.388 96.2647 182.198 96.2647C179.783 96.2647 177.907 94.797 177.907 91.044C177.907 87.5143 179.598 85.8792 181.697 85.8792C183.852 85.8792 185.284 87.2352 185.284 90.5603L178.855 91.5081Z" fill="#231F20"/>
<path fill-rule="evenodd" clip-rule="evenodd" d="M192.81 90.1892C189.875 90.5799 188.203 91.1556 188.203 93.4027C188.203 95.0016 189.206 95.6518 190.86 95.6518C191.583 95.6518 192.328 95.5029 192.81 95.2414V90.1892ZM190.73 96.2647C188.277 96.2647 187.219 95.0947 187.219 93.4027C187.219 90.7277 189.671 89.9102 192.81 89.5949V88.9076C192.81 87.105 191.751 86.6037 190.376 86.6037C189.411 86.6037 188.575 86.9572 188.054 87.2538L187.776 86.6037C188.296 86.3071 189.336 85.8792 190.488 85.8792C192.16 85.8792 193.758 86.6037 193.758 88.9252V95.5587C193.034 95.9856 191.974 96.2647 190.73 96.2647Z" fill="#231F20"/>
<path fill-rule="evenodd" clip-rule="evenodd" d="M199.39 96.1343C197.699 96.1343 197.161 94.8703 197.161 93.7933V86.6594H195.99V86.0651H197.161V83.6682L198.164 83.2971V86.0651H200.022V86.6398H198.164V93.8491C198.164 94.6666 198.555 95.4284 199.613 95.4284C199.724 95.4284 199.891 95.4284 200.022 95.3912V96.0413C199.854 96.0982 199.65 96.1343 199.39 96.1343Z" fill="#231F20"/>
<path fill-rule="evenodd" clip-rule="evenodd" d="M210.614 96.2647C208.515 96.2647 206.973 94.2399 206.973 91.0812C206.973 87.8295 208.46 85.8792 210.689 85.8792C211.897 85.8792 212.509 86.3071 212.769 86.5107L212.491 87.1432C212.175 86.9003 211.673 86.6223 210.837 86.6223C208.757 86.6223 207.995 88.5179 207.995 91.0068C207.995 93.6073 208.942 95.4843 210.782 95.4843C211.525 95.4843 212.064 95.2414 212.472 94.9448L212.769 95.6321C212.398 95.9484 211.673 96.2647 210.614 96.2647Z" fill="#231F20"/>
<path fill-rule="evenodd" clip-rule="evenodd" d="M215.076 96.0785H216.08V86.065H215.076V96.0785ZM215.577 83.9286C215.206 83.9286 214.909 83.6309 214.909 83.2588C214.909 82.8867 215.206 82.5901 215.577 82.5901C215.949 82.5901 216.247 82.8867 216.247 83.2588C216.247 83.6309 215.949 83.9286 215.577 83.9286Z" fill="#231F20"/>
<path fill-rule="evenodd" clip-rule="evenodd" d="M221.84 96.1343C220.149 96.1343 219.61 94.8703 219.61 93.7933V86.6594H218.439V86.0651H219.61V83.6682L220.613 83.2971V86.0651H222.471V86.6398H220.613V93.8491C220.613 94.6666 221.004 95.4284 222.063 95.4284C222.174 95.4284 222.341 95.4284 222.471 95.3912V96.0413C222.304 96.0982 222.1 96.1343 221.84 96.1343Z" fill="#231F20"/>
<path fill-rule="evenodd" clip-rule="evenodd" d="M226.689 100.072H225.575L227.248 96.0786L223.867 86.0652H224.962L227.377 93.9598C227.563 94.5551 227.62 95.075 227.62 95.075H227.656C227.656 95.075 227.75 94.5737 227.935 93.9598L230.425 86.0652H231.334L226.689 100.072Z" fill="#231F20"/>
<path fill-rule="evenodd" clip-rule="evenodd" d="M241.353 96.1343C239.662 96.1343 239.124 94.8703 239.124 93.7933V86.6594H237.952V86.0651H239.124V83.6682L240.126 83.2971V86.0651H241.984V86.6398H240.126V93.8491C240.126 94.6666 240.517 95.4284 241.576 95.4284C241.687 95.4284 241.854 95.4284 241.984 95.3912V96.0413C241.817 96.0982 241.613 96.1343 241.353 96.1343Z" fill="#231F20"/>
<path fill-rule="evenodd" clip-rule="evenodd" d="M247.411 86.5293C245.163 86.5293 244.735 88.982 244.735 91.0998C244.735 93.2363 245.219 95.5401 247.411 95.5401C249.64 95.5401 250.049 93.2166 250.049 91.0998C250.049 88.982 249.64 86.5293 247.411 86.5293ZM247.411 96.2647C244.772 96.2647 243.732 93.998 243.732 91.0812C243.732 88.1076 244.772 85.8792 247.374 85.8792C250.03 85.8792 251.052 88.1076 251.052 91.0812C251.052 93.998 250.012 96.2647 247.411 96.2647Z" fill="#231F20"/>
<path fill-rule="evenodd" clip-rule="evenodd" d="M258.86 96.0786H259.863V81.4946H258.86V96.0786Z" fill="#231F20"/>
<path fill-rule="evenodd" clip-rule="evenodd" d="M263.004 96.0785H264.007V86.065H263.004V96.0785ZM263.505 83.9286C263.134 83.9286 262.836 83.6309 262.836 83.2588C262.836 82.8867 263.134 82.5901 263.505 82.5901C263.877 82.5901 264.175 82.8867 264.175 83.2588C264.175 83.6309 263.877 83.9286 263.505 83.9286Z" fill="#231F20"/>
<path fill-rule="evenodd" clip-rule="evenodd" d="M270.435 96.0786H269.619L266.238 86.0652H267.333L269.786 93.9598C269.971 94.5551 270.027 95.0202 270.027 95.0202H270.064C270.064 95.0202 270.138 94.5737 270.325 93.9598L272.796 86.0652H273.706L270.435 96.0786Z" fill="#231F20"/>
<path fill-rule="evenodd" clip-rule="evenodd" d="M279.115 86.6223C277.517 86.6223 276.273 87.8481 276.273 90.8952L281.734 90.06C281.734 87.5505 280.731 86.6223 279.115 86.6223ZM276.29 91.5081C276.439 94.1655 277.666 95.4843 279.654 95.4843C280.769 95.4843 281.548 95.1877 282.051 94.89L282.366 95.6146C281.827 95.9484 280.824 96.2647 279.635 96.2647C277.22 96.2647 275.344 94.797 275.344 91.044C275.344 87.5143 277.034 85.8792 279.133 85.8792C281.288 85.8792 282.719 87.2352 282.719 90.5603L276.29 91.5081Z" fill="#231F20"/>
<path fill-rule="evenodd" clip-rule="evenodd" d="M284.673 99.2185H284.079L285.583 95.02C285.768 94.8526 285.992 94.741 286.382 94.741C286.679 94.741 286.792 94.8898 286.828 95.02L284.673 99.2185Z" fill="#231F20"/>
<path fill-rule="evenodd" clip-rule="evenodd" d="M303.83 96.0786H303.032L300.728 88.0528C300.56 87.4957 300.523 86.9934 300.523 86.9934H300.486C300.486 86.9934 300.43 87.4771 300.264 88.0528L297.904 96.0786H297.104L294.207 86.0652H295.265L297.29 93.9598C297.457 94.5923 297.495 95.0202 297.495 95.0202H297.532C297.532 95.0202 297.588 94.5923 297.774 93.9598L300.076 86.0652H300.987L303.217 93.9598C303.365 94.4631 303.44 95.0202 303.44 95.0202H303.477C303.477 95.0202 303.57 94.4631 303.7 93.9422L305.781 86.0652H306.729L303.83 96.0786Z" fill="#231F20"/>
<path fill-rule="evenodd" clip-rule="evenodd" d="M312.158 86.5293C309.91 86.5293 309.482 88.982 309.482 91.0998C309.482 93.2363 309.966 95.5401 312.158 95.5401C314.388 95.5401 314.795 93.2166 314.795 91.0998C314.795 88.982 314.388 86.5293 312.158 86.5293ZM312.158 96.2647C309.519 96.2647 308.479 93.998 308.479 91.0812C308.479 88.1076 309.519 85.8792 312.121 85.8792C314.777 85.8792 315.798 88.1076 315.798 91.0812C315.798 93.998 314.759 96.2647 312.158 96.2647Z" fill="#231F20"/>
<path fill-rule="evenodd" clip-rule="evenodd" d="M321.728 86.7525C320.856 86.5107 319.815 86.6223 319.258 87.0306V96.0786H318.254V86.5861C319.165 86.12 319.834 85.8792 322.027 85.8792L321.728 86.7525Z" fill="#231F20"/>
<path fill-rule="evenodd" clip-rule="evenodd" d="M329.273 96.0786L325.001 90.8579H324.963V96.0786H323.998V81.4946H324.963V90.8207H325.001L328.94 86.0652H330.054L325.93 90.8393L330.444 96.0786H329.273Z" fill="#231F20"/>
<path fill-rule="evenodd" clip-rule="evenodd" d="M342.338 90.1892C339.403 90.5799 337.73 91.1556 337.73 93.4027C337.73 95.0016 338.734 95.6518 340.388 95.6518C341.111 95.6518 341.855 95.5029 342.338 95.2414V90.1892ZM340.257 96.2647C337.805 96.2647 336.746 95.0947 336.746 93.4027C336.746 90.7277 339.199 89.9102 342.338 89.5949V88.9076C342.338 87.105 341.279 86.6037 339.904 86.6037C338.938 86.6037 338.102 86.9572 337.581 87.2538L337.303 86.6037C337.823 86.3071 338.864 85.8792 340.015 85.8792C341.688 85.8792 343.286 86.6037 343.286 88.9252V95.5587C342.561 95.9856 341.502 96.2647 340.257 96.2647Z" fill="#231F20"/>
<path fill-rule="evenodd" clip-rule="evenodd" d="M351.779 96.0786V88.796C351.779 87.7551 351.37 86.5665 349.382 86.5665C348.268 86.5665 347.766 86.7143 347.152 86.9758V96.0786H346.149V86.5861C346.986 86.1396 348.026 85.8792 349.531 85.8792C352.114 85.8792 352.781 87.5143 352.781 88.7391V96.0786H351.779Z" fill="#231F20"/>
<path fill-rule="evenodd" clip-rule="evenodd" d="M361.181 86.8073C360.717 86.6781 360.216 86.6037 359.714 86.6037C357.04 86.6037 356.24 88.9075 356.24 91.1556C356.24 93.6073 357.132 95.5587 359.473 95.5587C360.271 95.5587 360.81 95.4843 361.181 95.2238V86.8073ZM359.38 96.2647C356.593 96.2647 355.236 94.1272 355.236 91.2848C355.236 87.9039 356.964 85.9897 359.566 85.9897C360.086 85.9897 360.587 86.0652 361.181 86.2326V81.4946H362.166V95.5773C361.628 95.9484 360.607 96.2647 359.38 96.2647Z" fill="#231F20"/>
<path fill-rule="evenodd" clip-rule="evenodd" d="M372.928 86.5107C372.185 86.5107 371.665 86.6223 371.219 86.8642V95.3355C371.572 95.4657 372.073 95.5773 372.649 95.5773C374.953 95.5773 376.161 93.8306 376.161 90.9706C376.161 88.275 375.305 86.5107 372.928 86.5107ZM372.817 96.2275C372.259 96.2275 371.628 96.1158 371.219 95.967V100.072H370.234V86.5665C370.81 86.1954 371.758 85.8792 373.003 85.8792C375.733 85.8792 377.164 87.9608 377.164 90.858C377.164 94.2574 375.473 96.2275 372.817 96.2275Z" fill="#231F20"/>
<path fill-rule="evenodd" clip-rule="evenodd" d="M379.768 96.0786H380.77V81.4946H379.768V96.0786Z" fill="#231F20"/>
<path fill-rule="evenodd" clip-rule="evenodd" d="M388.854 90.1892C385.918 90.5799 384.246 91.1556 384.246 93.4027C384.246 95.0016 385.249 95.6518 386.903 95.6518C387.627 95.6518 388.371 95.5029 388.854 95.2414V90.1892ZM386.773 96.2647C384.32 96.2647 383.262 95.0947 383.262 93.4027C383.262 90.7277 385.715 89.9102 388.854 89.5949V88.9076C388.854 87.105 387.794 86.6037 386.42 86.6037C385.454 86.6037 384.618 86.9572 384.097 87.2538L383.819 86.6037C384.339 86.3071 385.379 85.8792 386.531 85.8792C388.204 85.8792 389.802 86.6037 389.802 88.9252V95.5587C389.077 95.9856 388.018 96.2647 386.773 96.2647Z" fill="#231F20"/>
<path fill-rule="evenodd" clip-rule="evenodd" d="M394.727 100.072H393.612L395.285 96.0786L391.904 86.0652H393.001L395.414 93.9598C395.6 94.5551 395.657 95.075 395.657 95.075H395.693C395.693 95.075 395.787 94.5737 395.972 93.9598L398.462 86.0652H399.373L394.727 100.072Z" fill="#231F20"/>
<path fill-rule="evenodd" clip-rule="evenodd" d="M177.687 20.4765C173.631 20.4765 170.867 18.4879 170.867 15.5979V4.31421H174.682V15.5742C174.682 17.2858 176.125 18.2098 177.838 18.2098C179.58 18.2098 180.962 17.2858 180.962 15.5742V4.31421H184.508V15.5979C184.508 18.4879 181.743 20.4765 177.687 20.4765Z" fill="#808285"/>
<path fill-rule="evenodd" clip-rule="evenodd" d="M191.27 8.92702C190.636 8.92702 190.143 9.01797 189.79 9.14407V14.0237C189.978 14.0784 190.448 14.1146 190.894 14.1146C193.197 14.1146 194.326 13.1565 194.326 11.4945C194.326 9.75906 193.455 8.92702 191.27 8.92702ZM194.42 20.2231L189.837 14.5839H189.79V20.2231H186.853V8.31306C187.863 7.91513 189.414 7.60815 191.27 7.60815C195.289 7.60815 197.239 9.05415 197.239 11.3859C197.239 13.265 195.477 14.5487 192.915 14.6748V14.711L197.733 20.2231H194.42Z" fill="#808285"/>
<path fill-rule="evenodd" clip-rule="evenodd" d="M202.665 14.2779L201.748 14.2955V18.7596C202.265 18.9229 202.828 18.9952 203.628 18.9952C205.556 18.9952 206.918 18.3978 206.918 16.7895C206.918 15.0728 205.719 14.2231 202.665 14.2779ZM203.534 8.90945C202.828 8.90945 202.288 8.9818 201.748 9.1265V13.1565L202.665 13.1751C205.532 13.2288 206.494 12.4691 206.494 10.9694C206.494 9.59575 205.485 8.90945 203.534 8.90945ZM203.723 20.404C201.678 20.404 200.032 20.1518 198.928 19.6991V8.31306C199.915 7.89756 201.583 7.60815 203.534 7.60815C207.435 7.60815 209.362 8.9818 209.362 10.8257C209.362 12.5239 207.717 13.4097 206.353 13.6443V13.6805C207.835 13.9337 209.902 15.018 209.902 16.8257C209.902 19.3022 207.411 20.404 203.723 20.404Z" fill="#808285"/>
<path fill-rule="evenodd" clip-rule="evenodd" d="M217.115 11.3126C216.762 10.3916 216.69 9.81284 216.69 9.81284H216.644C216.644 9.81284 216.574 10.3916 216.198 11.3126L214.458 15.6867H218.782L217.115 11.3126ZM220.451 20.2232L219.206 17.0242H213.989L212.696 20.2232H210.017L215.375 7.78906H218.194L223.53 20.2232H220.451Z" fill="#808285"/>
<path fill-rule="evenodd" clip-rule="evenodd" d="M233.842 20.2232L227.71 12.1984C227.169 11.4945 226.769 10.8072 226.769 10.8072H226.721C226.721 10.8072 226.817 11.5121 226.817 12.2531V20.2232H224.302V7.78906H227.121L232.903 15.3436C233.443 16.0485 233.773 16.6087 233.773 16.6087H233.82C233.82 16.6087 233.749 16.0123 233.749 15.2888V7.78906H236.24V20.2232H233.842Z" fill="#808285"/>
<path fill-rule="evenodd" clip-rule="evenodd" d="M176.576 28.68C175.764 28.68 175.133 28.7948 174.682 28.957V35.1999C174.923 35.2692 175.524 35.3157 176.095 35.3157C179.039 35.3157 180.482 34.0899 180.482 31.9627C180.482 29.7436 179.37 28.68 176.576 28.68ZM180.602 43.1307L174.742 35.9162H174.682V43.1307H170.927V27.8935C172.219 27.385 174.202 26.9922 176.576 26.9922C181.714 26.9922 184.207 28.8413 184.207 31.8242C184.207 34.2284 181.953 35.8707 178.679 36.032V36.0785L184.838 43.1307H180.602Z" fill="#808285"/>
<path fill-rule="evenodd" clip-rule="evenodd" d="M185.91 43.1224V30.6873H193.782V32.2232H188.894V35.9834H193.241V37.5007H188.894V41.5854H193.782V43.1224H185.91Z" fill="#808285"/>
<path fill-rule="evenodd" clip-rule="evenodd" d="M199.819 32.0061C199.184 32.0061 198.715 32.0609 198.293 32.187V41.5317C198.644 41.6226 199.232 41.7125 199.867 41.7125C202.64 41.7125 203.721 40.158 203.721 36.7782C203.721 33.543 202.521 32.0061 199.819 32.0061ZM199.913 43.3032C197.916 43.3032 196.318 43.0314 195.331 42.5973V31.2113C196.389 30.7958 197.893 30.5063 199.749 30.5063C204.637 30.5063 206.751 33.0914 206.751 36.8144C206.751 40.5198 204.801 43.3032 199.913 43.3032Z" fill="#808285"/>
<path fill-rule="evenodd" clip-rule="evenodd" d="M208.394 43.1224V30.6873H216.266V32.2232H211.378V35.9834H215.726V37.5007H211.378V41.5854H216.266V43.1224H208.394Z" fill="#808285"/>
<path fill-rule="evenodd" clip-rule="evenodd" d="M223.948 43.1224H221.363L216.499 30.6873H219.67L222.303 38.6759C222.538 39.3994 222.726 40.248 222.726 40.248H222.773C222.773 40.248 222.961 39.3994 223.196 38.6759L225.875 30.6873H228.718L223.948 43.1224Z" fill="#808285"/>
<path fill-rule="evenodd" clip-rule="evenodd" d="M229.538 43.1224V30.6873H237.411V32.2232H232.523V35.9834H236.87V37.5007H232.523V41.5854H237.411V43.1224H229.538Z" fill="#808285"/>
<path fill-rule="evenodd" clip-rule="evenodd" d="M239.006 43.1224V30.6873H242.013V41.5854H246.48V43.1224H239.006Z" fill="#808285"/>
<path fill-rule="evenodd" clip-rule="evenodd" d="M253.268 32.0247C250.777 32.0247 250.214 34.5001 250.214 36.8319C250.214 39.1461 250.707 41.604 253.268 41.604C255.831 41.604 256.301 39.1461 256.301 36.8319C256.301 34.5001 255.759 32.0247 253.268 32.0247ZM253.268 43.3032C248.921 43.3032 247.181 40.4474 247.181 36.9043C247.181 33.3797 248.921 30.5063 253.268 30.5063C257.616 30.5063 259.33 33.3797 259.33 36.9043C259.33 40.4474 257.616 43.3032 253.268 43.3032Z" fill="#808285"/>
<path fill-rule="evenodd" clip-rule="evenodd" d="M265.391 31.8262C264.686 31.8262 264.169 31.9337 263.887 32.0247V36.8505L264.498 36.8867C267.413 37.0676 268.469 36.0733 268.469 34.3565C268.469 32.6748 267.6 31.8262 265.391 31.8262ZM264.522 38.2428L263.887 38.2056V43.1224H260.974V31.2113C262.007 30.7958 263.582 30.5063 265.438 30.5063C269.598 30.5063 271.337 32.1694 271.337 34.374C271.337 36.6335 269.34 38.5136 264.522 38.2428Z" fill="#808285"/>
<path fill-rule="evenodd" clip-rule="evenodd" d="M285.692 43.1224C285.669 42.8144 284.658 34.8981 284.658 34.8981C284.564 34.1208 284.588 33.3984 284.588 33.3984H284.542C284.542 33.3984 284.377 34.1033 284.071 34.8981C284.071 34.8981 281.18 42.7059 280.992 43.1224H279.301C279.136 42.7606 276.246 34.8805 276.246 34.8805C275.964 34.1033 275.776 33.3984 275.776 33.3984H275.729C275.729 33.3984 275.753 34.1033 275.658 34.8805C275.658 34.8805 274.648 42.7606 274.624 43.1224H272.111L273.92 30.6873H276.928L279.818 38.6573C280.1 39.4531 280.241 40.0495 280.241 40.0495H280.288C280.288 40.0495 280.405 39.4531 280.711 38.6573L283.696 30.6873H286.704L288.513 43.1224H285.692Z" fill="#808285"/>
<path fill-rule="evenodd" clip-rule="evenodd" d="M290.083 43.1224V30.6873H297.955V32.2232H293.068V35.9834H297.415V37.5007H293.068V41.5854H297.955V43.1224H290.083Z" fill="#808285"/>
<path fill-rule="evenodd" clip-rule="evenodd" d="M309.044 43.1224L302.911 35.0976C302.37 34.3927 301.971 33.7053 301.971 33.7053H301.924C301.924 33.7053 302.018 34.4103 302.018 35.1513V43.1224H299.504V30.6873H302.324L308.104 38.2428C308.644 38.9467 308.974 39.5079 308.974 39.5079H309.021C309.021 39.5079 308.95 38.9115 308.95 38.188V30.6873H311.441V43.1224H309.044Z" fill="#808285"/>
<path fill-rule="evenodd" clip-rule="evenodd" d="M318.651 32.2232V43.1224H315.667V32.2232H312.659V30.6873H321.683V32.2232H318.651Z" fill="#808285"/>
<path fill-rule="evenodd" clip-rule="evenodd" d="M178.167 54.6325C177.717 53.4542 177.627 52.7141 177.627 52.7141H177.567C177.567 52.7141 177.477 53.4542 176.996 54.6325L174.773 60.2294H180.301L178.167 54.6325ZM182.434 66.032L180.841 61.939H174.172L172.52 66.032H169.095L175.945 50.125H179.549L186.37 66.032H182.434Z" fill="#808285"/>
<path fill-rule="evenodd" clip-rule="evenodd" d="M192.234 66.2325C189.062 66.2325 186.899 64.6779 186.899 62.4195V53.5989H189.883V62.4009C189.883 63.7384 191.012 64.4609 192.351 64.4609C193.714 64.4609 194.795 63.7384 194.795 62.4009V53.5989H197.568V62.4195C197.568 64.6779 195.407 66.2325 192.234 66.2325Z" fill="#808285"/>
<path fill-rule="evenodd" clip-rule="evenodd" d="M204.779 55.1358V66.034H201.794V55.1358H198.787V53.5989H207.811V55.1358H204.779Z" fill="#808285"/>
<path fill-rule="evenodd" clip-rule="evenodd" d="M217.09 66.034V60.4123H211.992V66.034H209.008V53.5989H211.992V58.894H217.09V53.5989H220.075V66.034H217.09Z" fill="#808285"/>
<path fill-rule="evenodd" clip-rule="evenodd" d="M227.803 54.9353C225.313 54.9353 224.747 57.4128 224.747 59.7446C224.747 62.0578 225.242 64.5156 227.803 64.5156C230.365 64.5156 230.834 62.0578 230.834 59.7446C230.834 57.4128 230.295 54.9353 227.803 54.9353ZM227.803 66.2149C223.455 66.2149 221.718 63.3591 221.718 59.8159C221.718 56.2924 223.455 53.418 227.803 53.418C232.15 53.418 233.867 56.2924 233.867 59.8159C233.867 63.3591 232.15 66.2149 227.803 66.2149Z" fill="#808285"/>
<path fill-rule="evenodd" clip-rule="evenodd" d="M239.973 54.7379C239.34 54.7379 238.844 54.8278 238.492 54.9539V59.8345C238.681 59.8883 239.15 59.9244 239.598 59.9244C241.9 59.9244 243.027 58.9673 243.027 57.3032C243.027 55.5699 242.158 54.7379 239.973 54.7379ZM243.122 66.034L238.54 60.3947H238.492V66.034H235.555V54.1229C236.565 53.726 238.116 53.418 239.973 53.418C243.991 53.418 245.942 54.864 245.942 57.1957C245.942 59.0748 244.179 60.3585 241.619 60.4857V60.5218L246.435 66.034H243.122Z" fill="#808285"/>
<path fill-rule="evenodd" clip-rule="evenodd" d="M247.678 66.033H250.685V53.5989H247.678V66.033Z" fill="#808285"/>
<path fill-rule="evenodd" clip-rule="evenodd" d="M257.945 55.1358V66.034H254.96V55.1358H251.952V53.5989H260.976V55.1358H257.945Z" fill="#808285"/>
<path fill-rule="evenodd" clip-rule="evenodd" d="M269.574 60.6655V66.034H266.591V60.6655L262.244 53.5989H265.416L268.189 58.7503H268.236L271.126 53.5989H273.969L269.574 60.6655Z" fill="#808285"/>
<path fill-rule="evenodd" clip-rule="evenodd" d="M140.132 24.0661V35.7509C140.132 37.479 139.048 38.7328 137.31 38.7328H132.407V21.2155L137.099 21.2041C138.837 21.2041 140.132 22.3421 140.132 24.0661ZM149.623 51.5142V45.233C149.623 41.7509 146.915 39.2713 143.451 39.2713C146.927 39.2713 149.636 36.1995 149.636 32.7163L149.623 23.384C149.623 19.91 147.216 17.0873 143.735 17.0873H122.932L122.863 38.924L118.173 38.9106C116.45 38.9106 114.994 37.6847 114.994 35.9607V17.0873H105.92V43.1297C105.92 47.7519 109.853 51.5514 114.469 51.5514C119.1 51.5514 122.791 48.5013 122.791 43.8739V51.5659H132.34V43.5917L136.852 43.6599C138.577 43.6599 140.018 45.2992 139.902 47.0057L139.888 51.5256H149.614C144.58 58.5736 136.396 63.1638 127.15 63.1638C111.845 63.1638 99.4346 50.5964 99.4346 35.0966C99.4346 19.5948 111.845 7.0284 127.15 7.0284C142.455 7.0284 154.866 19.5948 154.866 35.0966C154.866 41.2289 152.918 46.8971 149.623 51.5142ZM155.144 4.10126V14.5478C148.891 6.00514 138.853 0.465088 127.531 0.465088C108.566 0.465088 93.199 15.9979 93.199 35.1659C93.199 54.3369 108.566 69.8708 127.531 69.8708C138.853 69.8708 148.891 64.3297 155.144 55.7871V65.7436H162.009V4.10126H155.144Z" fill="#ED1B2D"/>
<path fill-rule="evenodd" clip-rule="evenodd" d="M140.132 24.0661V35.7509C140.132 37.479 139.048 38.7328 137.31 38.7328H132.407V21.2155L137.099 21.2041C138.837 21.2041 140.132 22.3421 140.132 24.0661ZM149.623 51.5142V45.233C149.623 41.7509 146.915 39.2713 143.451 39.2713C146.927 39.2713 149.636 36.1995 149.636 32.7163L149.623 23.384C149.623 19.91 147.216 17.0873 143.735 17.0873H122.932L122.863 38.924L118.173 38.9106C116.45 38.9106 114.994 37.6847 114.994 35.9607V17.0873H105.92V43.1297C105.92 47.7519 109.853 51.5514 114.469 51.5514C119.1 51.5514 122.791 48.5013 122.791 43.8739V51.5659H132.34V43.5917L136.852 43.6599C138.577 43.6599 140.018 45.2992 139.902 47.0057L139.888 51.5256H149.614C144.58 58.5736 136.396 63.1638 127.15 63.1638C111.845 63.1638 99.4346 50.5964 99.4346 35.0966C99.4346 19.5948 111.845 7.0284 127.15 7.0284C142.455 7.0284 154.866 19.5948 154.866 35.0966C154.866 41.2289 152.918 46.8971 149.623 51.5142ZM155.144 4.10126V14.5478C148.891 6.00514 138.853 0.465088 127.531 0.465088C108.566 0.465088 93.199 15.9979 93.199 35.1659C93.199 54.3369 108.566 69.8708 127.531 69.8708C138.853 69.8708 148.891 64.3297 155.144 55.7871V65.7436H162.009V4.10126H155.144Z" stroke="#ED1B2D" stroke-width="0.25"/>
</g>
<defs>
<clipPath id="clip0_8662_51565">
<rect width="400" height="100.258" fill="white"/>
</clipPath>
</defs>
</svg>
