<svg width="760" height="231" viewBox="0 0 760 231" fill="none" xmlns="http://www.w3.org/2000/svg">
<g clip-path="url(#clip0_531_794)">
<path fill-rule="evenodd" clip-rule="evenodd" d="M281.028 66.75C267.536 66.75 258.341 60.139 258.341 50.53V13.015H271.034V50.452C271.034 56.141 275.831 59.216 281.528 59.216C287.325 59.216 291.922 56.141 291.922 50.452V13.015H303.716V50.53C303.716 60.139 294.521 66.75 281.028 66.75Z" fill="#888B8D"/>
<path fill-rule="evenodd" clip-rule="evenodd" d="M326.207 28.36C324.097 28.36 322.456 28.66 321.284 29.081V45.31C321.909 45.489 323.472 45.61 324.957 45.61C332.614 45.61 336.365 42.424 336.365 36.895C336.365 31.125 333.474 28.36 326.207 28.36ZM336.677 65.926L321.44 47.173H321.284V65.926H311.516V26.316C314.876 24.994 320.034 23.972 326.207 23.972C339.568 23.972 346.054 28.781 346.054 36.534C346.054 42.785 340.194 47.052 331.676 47.473V47.593L347.695 65.926H336.677Z" fill="#888B8D"/>
<path fill-rule="evenodd" clip-rule="evenodd" d="M364.102 46.151L361.055 46.211V61.056C362.774 61.597 364.649 61.839 367.306 61.839C373.713 61.839 378.246 59.855 378.246 54.505C378.246 48.795 374.26 45.97 364.102 46.151ZM366.993 28.299C364.649 28.299 362.852 28.54 361.055 29.021V42.424L364.102 42.484C373.635 42.665 376.839 40.14 376.839 35.151C376.839 30.584 373.479 28.299 366.993 28.299ZM367.619 66.527C360.82 66.527 355.351 65.685 351.678 64.182V26.316C354.96 24.934 360.508 23.972 366.993 23.972C379.965 23.972 386.372 28.54 386.372 34.671C386.372 40.321 380.902 43.266 376.37 44.048V44.168C381.293 45.009 388.169 48.615 388.169 54.626C388.169 62.86 379.887 66.527 367.619 66.527Z" fill="#888B8D"/>
<path fill-rule="evenodd" clip-rule="evenodd" d="M412.156 36.294C410.984 33.228 410.75 31.305 410.75 31.305H410.594C410.594 31.305 410.359 33.228 409.108 36.294L403.326 50.839H417.704L412.156 36.294ZM423.252 65.926L419.11 55.286H401.764L397.466 65.926H388.558L406.374 24.573H415.751L433.488 65.926H423.252Z" fill="#888B8D"/>
<path fill-rule="evenodd" clip-rule="evenodd" d="M467.789 65.926L447.395 39.239C445.598 36.895 444.27 34.611 444.27 34.611H444.113C444.113 34.611 444.426 36.955 444.426 39.419V65.926H436.064V24.573H445.441L464.664 49.697C466.461 52.041 467.555 53.904 467.555 53.904H467.711C467.711 53.904 467.477 51.921 467.477 49.517V24.573H475.76V65.926H467.789Z" fill="#888B8D"/>
<path fill-rule="evenodd" clip-rule="evenodd" d="M277.33 94.06C274.632 94.06 272.533 94.443 271.034 94.982V115.738C271.833 115.968 273.832 116.122 275.731 116.122C285.526 116.122 290.323 112.048 290.323 104.976C290.323 97.595 286.625 94.06 277.33 94.06ZM290.723 142.106L271.233 118.121H271.034V142.106H258.541V91.446C262.838 89.755 269.435 88.447 277.33 88.447C294.421 88.447 302.716 94.597 302.716 104.514C302.716 112.509 295.221 117.967 284.327 118.506V118.659L304.815 142.106H290.723Z" fill="#888B8D"/>
<path fill-rule="evenodd" clip-rule="evenodd" d="M308.369 142.083V100.731H334.546V105.84H318.293V118.342H332.749V123.391H318.293V136.975H334.546V142.083H308.369Z" fill="#888B8D"/>
<path fill-rule="evenodd" clip-rule="evenodd" d="M354.626 105.118C352.516 105.118 350.954 105.299 349.547 105.719V136.794C350.719 137.094 352.672 137.395 354.782 137.395C364.003 137.395 367.597 132.227 367.597 120.986C367.597 110.227 363.612 105.118 354.626 105.118ZM354.938 142.684C348.297 142.684 342.983 141.783 339.701 140.34V102.474C343.218 101.092 348.219 100.131 354.392 100.131C370.645 100.131 377.677 108.725 377.677 121.107C377.677 133.428 371.192 142.684 354.938 142.684Z" fill="#888B8D"/>
<path fill-rule="evenodd" clip-rule="evenodd" d="M383.145 142.083V100.731H409.321V105.84H393.068V118.342H407.524V123.391H393.068V136.975H409.321V142.083H383.145Z" fill="#888B8D"/>
<path fill-rule="evenodd" clip-rule="evenodd" d="M434.87 142.083H426.274L410.1 100.731H420.648L429.4 127.297C430.182 129.701 430.807 132.527 430.807 132.527H430.963C430.963 132.527 431.589 129.701 432.37 127.297L441.277 100.731H450.732L434.87 142.083Z" fill="#888B8D"/>
<path fill-rule="evenodd" clip-rule="evenodd" d="M453.466 142.083V100.731H479.643V105.84H463.39V118.342H477.846V123.391H463.39V136.975H479.643V142.083H453.466Z" fill="#888B8D"/>
<path fill-rule="evenodd" clip-rule="evenodd" d="M484.953 142.083V100.731H494.955V136.975H509.802V142.083H484.953Z" fill="#888B8D"/>
<path fill-rule="evenodd" clip-rule="evenodd" d="M532.383 105.178C524.1 105.178 522.225 113.413 522.225 121.166C522.225 128.86 523.865 137.034 532.383 137.034C540.9 137.034 542.463 128.86 542.463 121.166C542.463 113.413 540.665 105.178 532.383 105.178ZM532.383 142.684C517.927 142.684 512.145 133.188 512.145 121.407C512.145 109.686 517.927 100.131 532.383 100.131C546.839 100.131 552.543 109.686 552.543 121.407C552.543 133.188 546.839 142.684 532.383 142.684Z" fill="#888B8D"/>
<path fill-rule="evenodd" clip-rule="evenodd" d="M572.7 104.518C570.356 104.518 568.637 104.878 567.699 105.178V121.227L569.73 121.348C579.42 121.948 582.937 118.643 582.937 112.932C582.937 107.343 580.046 104.518 572.7 104.518ZM569.809 125.856L567.699 125.735V142.083H558.01V102.474C561.448 101.092 566.684 100.131 572.856 100.131C586.688 100.131 592.47 105.66 592.47 112.993C592.47 120.506 585.828 126.756 569.809 125.856Z" fill="#888B8D"/>
<path fill-rule="evenodd" clip-rule="evenodd" d="M640.211 142.083C640.133 141.061 636.772 114.735 636.772 114.735C636.46 112.151 636.538 109.747 636.538 109.747H636.382C636.382 109.747 635.835 112.09 634.819 114.735C634.819 114.735 625.208 140.701 624.583 142.083H618.957C618.409 140.881 608.798 114.675 608.798 114.675C607.86 112.09 607.235 109.747 607.235 109.747H607.079C607.079 109.747 607.157 112.09 606.845 114.675C606.845 114.675 603.484 140.881 603.406 142.083H595.046L601.063 100.731H611.064L620.676 127.237C621.613 129.882 622.082 131.865 622.082 131.865H622.238C622.238 131.865 622.629 129.882 623.645 127.237L633.568 100.731H643.57L649.588 142.083H640.211Z" fill="#888B8D"/>
<path fill-rule="evenodd" clip-rule="evenodd" d="M654.82 142.083V100.731H680.997V105.84H664.744V118.342H679.2V123.391H664.744V136.975H680.997V142.083H654.82Z" fill="#888B8D"/>
<path fill-rule="evenodd" clip-rule="evenodd" d="M717.876 142.083L697.481 115.397C695.685 113.052 694.356 110.768 694.356 110.768H694.2C694.2 110.768 694.513 113.113 694.513 115.577V142.083H686.151V100.731H695.528L714.751 125.856C716.548 128.199 717.642 130.063 717.642 130.063H717.798C717.798 130.063 717.563 128.078 717.563 125.674V100.731H725.847V142.083H717.876Z" fill="#888B8D"/>
<path fill-rule="evenodd" clip-rule="evenodd" d="M749.832 105.84V142.083H739.908V105.84H729.906V100.731H759.912V105.84H749.832Z" fill="#888B8D"/>
<path fill-rule="evenodd" clip-rule="evenodd" d="M282.627 180.363C281.128 176.444 280.828 173.983 280.828 173.983H280.628C280.628 173.983 280.329 176.444 278.729 180.363L271.333 198.967H289.724L282.627 180.363ZM296.819 218.262L291.522 204.656H269.334L263.838 218.262H252.444L275.231 165.373H287.225L309.913 218.262H296.819Z" fill="#888B8D"/>
<path fill-rule="evenodd" clip-rule="evenodd" d="M329.405 218.935C318.856 218.935 311.667 213.766 311.667 206.252V176.922H321.591V206.193C321.591 210.641 325.342 213.045 329.795 213.045C334.328 213.045 337.922 210.641 337.922 206.193V176.922H347.143V206.252C347.143 213.766 339.954 218.935 329.405 218.935Z" fill="#888B8D"/>
<path fill-rule="evenodd" clip-rule="evenodd" d="M371.129 182.03V218.274H361.206V182.03H351.204V176.922H381.209V182.03H371.129Z" fill="#888B8D"/>
<path fill-rule="evenodd" clip-rule="evenodd" d="M412.072 218.274V199.581H395.116V218.274H385.192V176.922H395.116V194.532H412.072V176.922H421.996V218.274H412.072Z" fill="#888B8D"/>
<path fill-rule="evenodd" clip-rule="evenodd" d="M447.702 181.369C439.419 181.369 437.544 189.604 437.544 197.358C437.544 205.051 439.185 213.225 447.702 213.225C456.22 213.225 457.782 205.051 457.782 197.358C457.782 189.604 455.984 181.369 447.702 181.369ZM447.702 218.875C433.246 218.875 427.464 209.378 427.464 197.598C427.464 185.877 433.246 176.32 447.702 176.32C462.158 176.32 467.862 185.877 467.862 197.598C467.862 209.378 462.158 218.875 447.702 218.875Z" fill="#888B8D"/>
<path fill-rule="evenodd" clip-rule="evenodd" d="M488.176 180.708C486.066 180.708 484.425 181.009 483.253 181.43V197.658C483.878 197.838 485.441 197.958 486.926 197.958C494.583 197.958 498.334 194.773 498.334 189.243C498.334 183.473 495.443 180.708 488.176 180.708ZM498.646 218.274L483.409 199.522H483.253V218.274H473.485V178.664C476.846 177.342 482.003 176.32 488.176 176.32C501.538 176.32 508.023 181.129 508.023 188.883C508.023 195.133 502.163 199.401 493.646 199.821V199.942L509.664 218.274H498.646Z" fill="#888B8D"/>
<path fill-rule="evenodd" clip-rule="evenodd" d="M513.803 218.274H523.805V176.922H513.803V218.274Z" fill="#888B8D"/>
<path fill-rule="evenodd" clip-rule="evenodd" d="M547.947 182.03V218.274H538.023V182.03H528.021V176.922H558.027V182.03H547.947Z" fill="#888B8D"/>
<path fill-rule="evenodd" clip-rule="evenodd" d="M586.626 200.422V218.274H576.702V200.422L562.246 176.922H572.795L582.016 194.051H582.172L591.783 176.922H601.238L586.626 200.422Z" fill="#888B8D"/>
<mask id="mask0_531_794" style="mask-type:alpha" maskUnits="userSpaceOnUse" x="0" y="0" width="229" height="231">
<path d="M0.0600586 0.161987H228.838V231H0.0600586V0.161987Z" fill="white"/>
</mask>
<g mask="url(#mask0_531_794)">
<path fill-rule="evenodd" clip-rule="evenodd" d="M206.002 217.276H228.838V12.275H206.002V217.276Z" fill="#DA291C"/>
<path fill-rule="evenodd" clip-rule="evenodd" d="M0 115.581C0 51.836 51.117 0.161987 114.175 0.161987C177.234 0.161987 228.352 51.836 228.352 115.581C228.352 179.326 177.234 231 114.175 231C51.117 231 0 179.326 0 115.581ZM20.74 115.346C20.74 166.901 62.005 208.694 112.912 208.694C163.818 208.694 205.085 166.901 205.085 115.346C205.085 63.792 163.818 22 112.912 22C62.005 22 20.74 63.792 20.74 115.346Z" fill="#DA291C"/>
</g>
<path fill-rule="evenodd" clip-rule="evenodd" d="M156.083 78.665V117.529C156.083 123.264 152.482 127.436 146.701 127.436H130.397V69.189L145.989 69.139C151.771 69.139 156.083 72.93 156.083 78.665ZM98.886 55.444H168.072C179.636 55.444 187.646 64.827 187.646 76.389L187.691 107.431C187.691 118.994 178.688 129.235 167.125 129.235C178.64 129.235 187.646 137.482 187.646 149.043V169.977H155.277L155.325 154.964C155.704 149.279 150.917 143.822 145.184 143.822L130.163 143.6V170.119H98.411V144.531C98.411 159.93 86.136 170.072 70.735 170.072C55.381 170.072 42.302 157.434 42.302 142.065V55.444H72.488V118.227C72.488 123.961 77.322 128.037 83.056 128.037L98.647 128.084L98.886 55.444Z" fill="#DA291C"/>
</g>
<defs>
<clipPath id="clip0_531_794">
<rect width="760" height="231" fill="white"/>
</clipPath>
</defs>
</svg>
